<?xml version="1.0" standalone="yes"?>
<svg xmlns="http://www.w3.org/2000/svg" width="200" height="200">
<path style="fill:#fbbd80; stroke:none;" d="M104 60C106.052 60.8743 107.747 60.9528 110 61C107.948 60.1258 106.253 60.0472 104 60M97 61C98.2484 61.6848 98.5484 61.7488 100 62C98.7517 61.3152 98.4515 61.2512 97 61z"/>
<path style="fill:#f68b25; stroke:none;" d="M71 86C67.1049 84.5 63.2803 82.7771 59 83.1998C48.4813 84.2387 41.8111 93.9283 44 104C33.8291 105.979 26.1073 110.046 21.8796 120C20.4116 123.456 17.9707 131.145 23.1481 132.682C26.4177 133.653 30.62 133 34 133L57 133L130 133C130.55 128.646 132.242 123.127 128.566 119.653C124.127 115.457 115.57 117 110 117C94.6093 117 79.365 116 64 116L64 114C76.3882 114 88.6188 113 101 113C108.971 113 118.206 114.272 126 112.471C135.23 110.337 143.795 99.7108 143.605 90C143.518 85.5621 140.719 80.5196 138.211 77C120.617 52.314 81.0302 57.0686 71 86z"/>
<path style="fill:#fbbd80; stroke:none;" d="M114.667 61.3333C114.222 61.7778 115.278 61.7222 115.333 61.6667C115.778 61.2222 114.722 61.2778 114.667 61.3333M118.667 62.3333C118.222 62.7778 119.278 62.7222 119.333 62.6667C119.778 62.2222 118.722 62.2778 118.667 62.3333M91 63L92 64L91 63M121 63L122 64L121 63M89 64L90 65L89 64M123 64L124 65L123 64M87 65L88 66L87 65M125 65L126 66L125 65M127 66L128 67L127 66M84 67L85 68L84 67M83 68L84 69L83 68M131 69L132 70L131 69M132 70L133 71L132 70M133 71L134 72L133 71M134 72L135 73L134 72M135 73L136 74L135 73M136 74L137 75L136 74M76 75L77 76L76 75M75 76L76 77L75 76M138 77L139 78L138 77M74 78L75 79L74 78M140 80L141 81L140 80M72 81L73 82L72 81M141 82L142 83L141 82M55.6667 84L54 85L53 84M67 84L68 85L67 84M51 85L52 86L51 85M69 85L70 86L69 85M142 85L143 86L142 85M48 87L49 88L48 87M47 88L48 89L47 88M45 91L46 92L45 91M143 92L144 93L143 92M165 114L165 116C151.221 116.009 137.465 117.825 133 133L180 133C181.967 117.435 177.856 99.8708 161 94.2207C157.399 93.0137 150.951 90.6673 147.43 93.0285C142.57 96.2875 142.774 107.89 147.228 111.258C151.457 114.455 159.916 113.986 165 114M44 93L45 94L44 93M142 95L143 96L142 95M43.3333 96.6667C43.2778 96.7222 43.2222 97.7778 43.6667 97.3333C43.7222 97.2778 43.7778 96.2222 43.3333 96.6667M141 97L142 98L141 97M140 100L141 101L140 100M43.3333 102.667C43.2778 102.722 43.2222 103.778 43.6667 103.333C43.7222 103.278 43.7778 102.222 43.3333 102.667M139 102L140 103L139 102M40.6667 104.333C40.2222 104.778 41.2778 104.722 41.3333 104.667C41.7778 104.222 40.7222 104.278 40.6667 104.333M36 105L37 106L36 105M137 105L138 106L137 105M34 106L35 107L34 106M136 106L137 107L136 106M32 107L33 108L32 107M135 107L136 108L135 107M30 108L31 109L30 108M134 108L135 109L134 108M29 109L30 110L29 109M131 110L132 111L131 110M129 111L130 112L129 111M126.667 112.333C126.222 112.778 127.278 112.722 127.333 112.667C127.778 112.222 126.722 112.278 126.667 112.333M25 113L26 114L25 113M83 113C88.7146 115.398 96.8308 114 103 114C97.2853 111.602 89.1692 113 83 113M24 114L25 115L24 114M23 116L24 117L23 116M82 116C87.7147 118.398 95.8308 117 102 117C96.2853 114.602 88.1692 116 82 116M125 117L126 118L125 117M22 118L23 119L22 118M127 118L128 119L127 118M21 120L22 121L21 120M130 121L131 122L130 121M130.333 129.667C130.278 129.722 130.222 130.778 130.667 130.333C130.722 130.278 130.778 129.222 130.333 129.667M20 132L21 133L20 132z"/>
</svg>
