<!DOCTYPE svg PUBLIC "-//W3C//DTD SVG 20010904//EN" "http://www.w3.org/TR/2001/REC-SVG-20010904/DTD/svg10.dtd">
<svg version="1.0" xmlns="http://www.w3.org/2000/svg" width="225px" height="225px" viewBox="0 0 2250 2250" preserveAspectRatio="xMidYMid meet">
<g id="layer101" fill="#000000" stroke="none">
 <path d="M1005 2239 c-167 -13 -346 -77 -505 -180 -84 -55 -254 -225 -309 -309 -145 -222 -207 -478 -181 -744 44 -472 404 -874 873 -977 107 -24 346 -29 443 -9 223 44 409 140 569 291 103 98 165 183 230 314 97 195 132 385 114 610 -31 378 -266 720 -618 895 -187 94 -376 127 -616 109z m261 -100 c101 -14 219 -51 318 -100 264 -131 452 -362 533 -656 25 -87 28 -115 28 -253 0 -171 -18 -264 -77 -402 -67 -159 -192 -319 -331 -424 -86 -65 -243 -139 -362 -171 -87 -23 -120 -26 -250 -26 -130 0 -163 3 -247 26 -557 148 -882 694 -742 1247 44 174 127 321 259 458 223 234 548 346 871 301z"/>
 <path d="M840 1574 c0 -108 -2 -125 -15 -120 -8 3 -58 30 -111 61 -52 30 -97 55 -100 55 -2 0 -4 -200 -4 -445 0 -245 2 -445 4 -445 3 0 48 25 100 55 53 31 103 58 111 61 12 5 15 -14 17 -120 l3 -126 490 283 c270 155 493 285 495 289 4 6 -829 493 -962 564 l-28 15 0 -127z m458 -243 c194 -112 352 -204 352 -206 0 -3 -696 -407 -712 -413 -5 -2 -8 31 -6 73 l3 78 215 124 c118 68 221 127 227 131 8 5 -76 59 -215 138 l-227 131 -3 78 c-2 42 1 75 6 73 4 -1 166 -95 360 -207z m-520 39 l62 -35 0 -210 0 -210 -70 -38 -70 -38 0 286 c0 158 3 285 8 283 4 -1 35 -19 70 -38z m297 -171 c69 -39 125 -73 125 -74 0 -5 -250 -145 -260 -145 -6 0 -10 54 -10 145 0 91 4 145 10 145 6 0 66 -32 135 -71z"/>
 </g>

</svg>