<!DOCTYPE svg PUBLIC "-//W3C//DTD SVG 20010904//EN" "http://www.w3.org/TR/2001/REC-SVG-20010904/DTD/svg10.dtd">
<svg version="1.0" xmlns="http://www.w3.org/2000/svg" width="269px" height="187px" viewBox="0 0 2690 1870" preserveAspectRatio="xMidYMid meet">
<g id="layer101" fill="#ff0000" stroke="none">
 <path d="M870 1853 c-158 -4 -426 -22 -500 -35 -124 -20 -242 -98 -288 -191 -48 -96 -72 -325 -72 -686 0 -330 18 -546 56 -664 20 -60 95 -144 164 -181 114 -62 365 -80 1095 -80 672 0 972 17 1100 62 35 11 69 35 112 77 52 52 64 71 82 129 43 139 55 285 55 656 1 559 -30 700 -171 805 -94 69 -208 88 -628 105 -223 9 -718 10 -1005 3z m549 -707 c183 -112 331 -208 329 -213 -1 -6 -654 -413 -662 -413 -1 0 -1 187 -1 415 0 228 0 415 1 415 1 0 150 -92 333 -204z"/>
 </g>

</svg>